<?xml version="1.0" encoding="UTF-8"?>
<svg width="769.19" height="136.37" version="1.1" viewBox="0 0 769.19 136.37" xml:space="preserve" xmlns="http://www.w3.org/2000/svg" xmlns:cc="http://creativecommons.org/ns#" xmlns:dc="http://purl.org/dc/elements/1.1/" xmlns:rdf="http://www.w3.org/1999/02/22-rdf-syntax-ns#"><metadata><rdf:RDF><cc:Work rdf:about=""><dc:format>image/svg+xml</dc:format><dc:type rdf:resource="http://purl.org/dc/dcmitype/StillImage"/><dc:title/></cc:Work></rdf:RDF></metadata><defs><clipPath id="clipPath44"><path d="M 0,144.331 H 607.22 V 0 H 0 Z"/></clipPath></defs><g transform="matrix(1.3333 0 0 -1.3333 -21.816 149.92)"><g clip-path="url(#clipPath44)"><g transform="translate(274.84 81.896)"><path d="m0 0c-0.124 0-0.248-8e-3 -0.374-0.024-0.783-0.101-1.48-0.504-1.962-1.135-0.484-0.632-0.695-1.415-0.596-2.208 0.099-0.792 0.497-1.497 1.121-1.986 0.625-0.49 1.406-0.703 2.182-0.602 0.783 0.101 1.48 0.504 1.962 1.135 0.484 0.631 0.695 1.415 0.595 2.208-0.189 1.507-1.464 2.612-2.928 2.612m-0.012-7.931c-1.075 0-2.114 0.358-2.979 1.036-1.031 0.808-1.689 1.974-1.853 3.283-0.165 1.308 0.184 2.604 0.983 3.647 0.798 1.043 1.95 1.71 3.244 1.876 2.664 0.342 5.118-1.576 5.458-4.278 0.165-1.308-0.184-2.604-0.983-3.647-0.798-1.044-1.95-1.71-3.244-1.877-0.209-0.026-0.418-0.04-0.626-0.04"/></g><g transform="translate(291.46 65.344)"><path d="m0 0c-0.124 0-0.249-8e-3 -0.375-0.024-1.615-0.208-2.762-1.708-2.557-3.343 0.205-1.634 1.675-2.794 3.303-2.588 1.615 0.207 2.763 1.707 2.558 3.343-0.19 1.508-1.465 2.612-2.929 2.612m-4e-3 -7.93c-2.421 0-4.527 1.826-4.841 4.317-0.34 2.702 1.557 5.18 4.228 5.524 2.676 0.34 5.118-1.576 5.458-4.278 0.338-2.702-1.558-5.18-4.227-5.524-0.207-0.026-0.414-0.039-0.618-0.039"/></g><g transform="translate(281.91 57.116)"><path d="m0 0c-0.125 0-0.251-8e-3 -0.378-0.024-0.784-0.101-1.48-0.504-1.964-1.135-0.483-0.631-0.694-1.415-0.594-2.208 0.205-1.634 1.682-2.798 3.302-2.588 0.783 0.101 1.48 0.504 1.963 1.135 0.484 0.632 0.694 1.415 0.595 2.207v1e-3c-0.099 0.791-0.497 1.497-1.122 1.986-0.522 0.409-1.151 0.626-1.802 0.626m-0.01-7.93c-2.42 0-4.525 1.826-4.839 4.318-0.165 1.308 0.184 2.604 0.983 3.647 0.798 1.044 1.951 1.71 3.244 1.876 1.289 0.166 2.573-0.187 3.605-0.995s1.689-1.974 1.853-3.283-0.184-2.604-0.982-3.647c-0.799-1.043-1.951-1.71-3.245-1.876-0.208-0.027-0.415-0.04-0.619-0.04"/></g><g transform="translate(270.03 45.926)"><path d="m0 0c-0.125 0-0.249-8e-3 -0.375-0.024-1.615-0.208-2.763-1.708-2.558-3.343 0.206-1.634 1.679-2.794 3.304-2.588 1.615 0.208 2.762 1.707 2.557 3.343-0.189 1.508-1.465 2.612-2.928 2.612m-5e-3 -7.93c-2.42 0-4.527 1.826-4.84 4.318-0.34 2.701 1.557 5.179 4.227 5.523 2.677 0.343 5.119-1.576 5.459-4.278 0.338-2.702-1.558-5.179-4.227-5.524-0.208-0.026-0.415-0.039-0.619-0.039"/></g><g transform="translate(270.88 101.87)"><path d="m0 0c-0.123 0-0.248-8e-3 -0.373-0.024-0.781-0.101-1.477-0.503-1.959-1.134-0.482-0.632-0.693-1.415-0.593-2.208 0.206-1.635 1.688-2.787 3.299-2.59 0.781 0.101 1.477 0.503 1.959 1.134s0.693 1.416 0.594 2.208c-0.191 1.509-1.464 2.614-2.927 2.614m-1e-3 -7.93c-2.418 0-4.523 1.826-4.835 4.318-0.165 1.309 0.183 2.604 0.981 3.646 0.797 1.044 1.947 1.71 3.239 1.876 2.667 0.347 5.114-1.577 5.453-4.278 0.165-1.309-0.183-2.604-0.981-3.647-0.796-1.043-1.947-1.709-3.239-1.875-0.207-0.026-0.414-0.04-0.618-0.04"/></g><g transform="translate(300.31 86.913)"><path d="m0 0c-0.124 0-0.249-8e-3 -0.375-0.024-0.782-0.101-1.479-0.504-1.962-1.135-0.483-0.632-0.695-1.415-0.596-2.207 0.1-0.792 0.498-1.498 1.122-1.987 0.623-0.488 1.391-0.705 2.182-0.602 1.615 0.208 2.762 1.707 2.557 3.343-0.189 1.507-1.464 2.612-2.928 2.612m-0.012-7.93c-1.075 0-2.114 0.358-2.979 1.035-1.031 0.808-1.69 1.974-1.854 3.283-0.165 1.309 0.184 2.604 0.984 3.648 0.798 1.043 1.95 1.709 3.243 1.875 2.673 0.342 5.119-1.575 5.459-4.278 0.34-2.701-1.557-5.179-4.227-5.523-0.209-0.027-0.418-0.04-0.626-0.04"/></g><g transform="translate(295 100.06)"><path d="m0 0c-0.125 0-0.251-8e-3 -0.378-0.024-0.784-0.101-1.48-0.504-1.964-1.135-0.483-0.631-0.694-1.415-0.594-2.208 0.205-1.634 1.679-2.8 3.302-2.588 0.783 0.101 1.48 0.504 1.963 1.135 0.484 0.632 0.694 1.415 0.594 2.207v1e-3c-0.098 0.791-0.496 1.497-1.121 1.986-0.522 0.41-1.151 0.626-1.802 0.626m-0.011-7.93c-2.419 0-4.525 1.826-4.838 4.318-0.165 1.308 0.184 2.604 0.983 3.648 0.798 1.043 1.951 1.709 3.244 1.875 1.289 0.163 2.573-0.187 3.605-0.995s1.689-1.974 1.853-3.283-0.184-2.604-0.982-3.647c-0.799-1.043-1.951-1.71-3.245-1.876-0.208-0.027-0.415-0.04-0.62-0.04"/></g><g transform="translate(306.7 107.07)"><path d="m0 0c-0.123 0-0.248-8e-3 -0.374-0.024-1.615-0.208-2.762-1.707-2.557-3.343 0.205-1.635 1.692-2.798 3.303-2.588 1.615 0.208 2.763 1.708 2.557 3.343-0.189 1.508-1.464 2.612-2.929 2.612m-4e-3 -7.93c-2.42 0-4.526 1.826-4.84 4.318-0.338 2.702 1.558 5.18 4.227 5.524 2.661 0.342 5.119-1.577 5.459-4.278 0.34-2.702-1.556-5.18-4.227-5.524-0.208-0.027-0.414-0.04-0.619-0.04"/></g><g transform="translate(329.02 99.43)"><path d="m0 0c-0.125 0-0.252-8e-3 -0.379-0.025-0.782-0.1-1.479-0.503-1.962-1.134-0.483-0.632-0.695-1.416-0.596-2.208 0.206-1.634 1.68-2.797 3.304-2.588 1.615 0.208 2.763 1.707 2.558 3.342-0.101 0.792-0.498 1.497-1.122 1.987-0.523 0.409-1.152 0.626-1.803 0.626m-0.01-7.93c-2.42 0-4.525 1.826-4.839 4.317-0.165 1.309 0.185 2.605 0.984 3.648 0.798 1.043 1.95 1.71 3.244 1.876 1.288 0.165 2.572-0.187 3.603-0.995 1.033-0.808 1.691-1.974 1.855-3.283 0.338-2.702-1.558-5.18-4.228-5.524-0.208-0.026-0.414-0.039-0.619-0.039"/></g><g transform="translate(340.61 98.595)"><path d="m0 0c-0.125 0-0.251-8e-3 -0.378-0.025-0.783-0.1-1.479-0.504-1.963-1.135-0.483-0.631-0.694-1.415-0.595-2.207 0.206-1.635 1.675-2.795 3.302-2.589 0.783 0.101 1.481 0.504 1.963 1.136 0.484 0.631 0.695 1.415 0.595 2.207-0.099 0.792-0.497 1.498-1.121 1.986-0.523 0.41-1.151 0.627-1.803 0.627m-9e-3 -7.931c-2.42 0-4.526 1.826-4.84 4.318-0.164 1.309 0.185 2.604 0.984 3.648 0.798 1.043 1.95 1.709 3.244 1.876 1.289 0.163 2.573-0.187 3.604-0.995 1.032-0.809 1.69-1.974 1.854-3.283 0.165-1.309-0.185-2.604-0.983-3.648-0.798-1.043-1.95-1.709-3.245-1.876-0.207-0.026-0.414-0.04-0.618-0.04"/></g><g transform="translate(320.24 77.682)"><path d="m0 0c-0.125 0-0.251-8e-3 -0.378-0.025-1.615-0.207-2.763-1.707-2.558-3.342 0.206-1.634 1.675-2.797 3.303-2.588 0.782 0.101 1.481 0.503 1.963 1.135 0.483 0.631 0.694 1.415 0.595 2.207-0.1 0.792-0.498 1.497-1.122 1.987-0.523 0.409-1.152 0.626-1.803 0.626m-9e-3 -7.93c-2.42 0-4.526 1.826-4.84 4.317-0.339 2.702 1.558 5.18 4.228 5.524 1.289 0.165 2.573-0.187 3.604-0.995 1.032-0.808 1.69-1.974 1.855-3.283s-0.185-2.605-0.984-3.648c-0.798-1.043-1.951-1.71-3.244-1.876-0.208-0.026-0.415-0.039-0.619-0.039"/></g><g transform="translate(310.91 69.321)"><path d="m0 0c-0.125 0-0.251-8e-3 -0.378-0.025-1.616-0.207-2.763-1.706-2.558-3.342 0.1-0.792 0.498-1.497 1.122-1.986 0.623-0.488 1.39-0.702 2.18-0.602 0.783 0.101 1.481 0.504 1.963 1.135 0.484 0.631 0.694 1.415 0.595 2.207v1e-3c-0.099 0.791-0.497 1.497-1.121 1.986-0.523 0.409-1.152 0.626-1.803 0.626m-0.017-7.93c-1.075 0-2.114 0.357-2.978 1.034-1.031 0.809-1.689 1.974-1.854 3.284-0.339 2.701 1.557 5.179 4.228 5.523 1.289 0.166 2.572-0.187 3.604-0.995s1.69-1.974 1.854-3.284c0.164-1.308-0.185-2.603-0.983-3.646s-1.951-1.71-3.245-1.876c-0.209-0.027-0.418-0.04-0.626-0.04"/></g><g transform="translate(273.76 32.501)"><path d="m0 0c-0.125 0-0.249-8e-3 -0.375-0.024-1.615-0.208-2.763-1.708-2.557-3.343 0.205-1.634 1.677-2.796 3.303-2.588 1.615 0.208 2.762 1.707 2.557 3.343-0.189 1.508-1.465 2.612-2.928 2.612m-5e-3 -7.93c-2.42 0-4.527 1.826-4.84 4.318-0.34 2.701 1.557 5.179 4.227 5.523 2.673 0.342 5.119-1.576 5.459-4.278 0.338-2.702-1.558-5.179-4.227-5.524-0.207-0.026-0.415-0.039-0.619-0.039"/></g><g transform="translate(285.94 30.072)"><path d="m0 0c-0.125 0-0.251-8e-3 -0.378-0.024-0.783-0.101-1.48-0.504-1.963-1.136-0.483-0.631-0.695-1.415-0.595-2.207 0.206-1.634 1.675-2.795 3.303-2.588 1.615 0.207 2.763 1.707 2.558 3.342-0.1 0.792-0.498 1.498-1.122 1.987-0.523 0.41-1.152 0.626-1.803 0.626m-9e-3 -7.93c-2.419 0-4.526 1.826-4.84 4.318-0.339 2.701 1.557 5.179 4.228 5.523 1.289 0.165 2.574-0.187 3.604-0.995 1.032-0.808 1.69-1.974 1.854-3.283 0.339-2.703-1.557-5.18-4.227-5.523-0.208-0.027-0.415-0.04-0.619-0.04"/></g><g transform="translate(308.27 23.483)"><path d="m0 0c-0.124 0-0.248-8e-3 -0.374-0.024-0.783-0.101-1.48-0.504-1.962-1.135-0.484-0.632-0.695-1.415-0.596-2.208 0.099-0.792 0.497-1.497 1.121-1.986 0.625-0.49 1.407-0.702 2.182-0.602 0.783 0.101 1.479 0.504 1.962 1.135 0.484 0.631 0.695 1.415 0.595 2.208-0.189 1.507-1.464 2.612-2.928 2.612m-0.012-7.931c-1.075 0-2.114 0.358-2.979 1.036-1.031 0.808-1.689 1.974-1.853 3.282-0.165 1.309 0.184 2.605 0.983 3.648 0.798 1.043 1.95 1.71 3.244 1.876 2.663 0.341 5.118-1.576 5.458-4.278 0.164-1.309-0.184-2.604-0.983-3.648-0.798-1.043-1.95-1.709-3.244-1.876-0.209-0.026-0.418-0.04-0.626-0.04"/></g><g transform="translate(319.67 30.958)"><path d="m0 0c-0.123 0-0.247-8e-3 -0.373-0.024-0.783-0.101-1.481-0.504-1.963-1.135-0.484-0.632-0.695-1.415-0.595-2.208 0.099-0.792 0.497-1.497 1.121-1.986 0.624-0.49 1.405-0.703 2.181-0.602 0.783 0.101 1.48 0.504 1.963 1.135s0.694 1.415 0.595 2.208c-0.19 1.507-1.464 2.612-2.929 2.612m-0.011-7.931c-1.076 0-2.115 0.358-2.979 1.036-1.032 0.808-1.69 1.974-1.854 3.282-0.165 1.309 0.185 2.605 0.983 3.648s1.951 1.71 3.245 1.876c2.663 0.343 5.118-1.576 5.458-4.278 0.164-1.309-0.185-2.604-0.984-3.648-0.797-1.043-1.95-1.709-3.244-1.876-0.209-0.026-0.418-0.04-0.625-0.04"/></g><g transform="translate(314.67 43.675)"><path d="m0 0c-0.124 0-0.248-8e-3 -0.374-0.024-1.616-0.208-2.764-1.707-2.558-3.343 0.205-1.634 1.677-2.794 3.303-2.588 1.615 0.208 2.763 1.707 2.558 3.343-0.19 1.508-1.465 2.612-2.929 2.612m-5e-3 -7.93c-2.42 0-4.526 1.826-4.84 4.318-0.34 2.701 1.557 5.179 4.228 5.524 2.673 0.341 5.119-1.577 5.459-4.279 0.338-2.702-1.559-5.179-4.228-5.523-0.207-0.027-0.414-0.04-0.619-0.04"/></g><g transform="translate(343.1 27.263)"><path d="m0 0c-0.125 0-0.251-8e-3 -0.378-0.024-1.615-0.208-2.763-1.707-2.558-3.343 0.1-0.792 0.498-1.497 1.123-1.986 0.623-0.488 1.39-0.704 2.18-0.602 0.782 0.101 1.48 0.504 1.963 1.135 0.483 0.632 0.694 1.415 0.595 2.207-0.1 0.792-0.498 1.498-1.122 1.987-0.523 0.41-1.152 0.626-1.803 0.626m-0.016-7.93c-1.075 0-2.114 0.357-2.978 1.034-1.031 0.809-1.69 1.975-1.855 3.284-0.339 2.701 1.557 5.179 4.228 5.523 1.288 0.166 2.572-0.187 3.604-0.995s1.69-1.974 1.855-3.283c0.164-1.309-0.185-2.604-0.984-3.648-0.798-1.043-1.951-1.709-3.244-1.875-0.209-0.027-0.418-0.04-0.626-0.04"/></g><g transform="translate(339.47 47.67)"><path d="m0 0c-0.123 0-0.248-8e-3 -0.374-0.024-1.615-0.208-2.763-1.707-2.558-3.342 0.1-0.792 0.498-1.498 1.122-1.987 0.623-0.488 1.39-0.704 2.181-0.602 0.782 0.101 1.48 0.504 1.963 1.135 0.482 0.632 0.694 1.416 0.595 2.208-0.19 1.507-1.464 2.612-2.929 2.612m-0.012-7.93c-1.075 0-2.114 0.358-2.978 1.035-1.032 0.808-1.69 1.974-1.855 3.283-0.338 2.702 1.558 5.179 4.228 5.523 2.66 0.341 5.118-1.574 5.459-4.278 0.164-1.308-0.185-2.604-0.985-3.648-0.797-1.043-1.95-1.709-3.243-1.875-0.209-0.027-0.418-0.04-0.626-0.04"/></g><g transform="translate(323.43 63.881)"><path d="m0 0c-0.123 0-0.248-8e-3 -0.374-0.024-1.615-0.208-2.763-1.708-2.558-3.343 0.206-1.634 1.68-2.797 3.304-2.588 1.615 0.208 2.763 1.707 2.558 3.342-0.19 1.508-1.465 2.613-2.93 2.613m-5e-3 -7.93c-2.42-1e-3 -4.525 1.826-4.839 4.318-0.34 2.701 1.557 5.179 4.228 5.523 2.661 0.341 5.118-1.576 5.458-4.278s-1.557-5.179-4.228-5.524c-0.208-0.026-0.415-0.039-0.619-0.039"/></g><g transform="translate(332.89 72.148)"><path d="m0 0c-0.123 0-0.248-8e-3 -0.374-0.024-1.615-0.208-2.763-1.707-2.558-3.342 0.1-0.792 0.498-1.498 1.122-1.987 0.623-0.488 1.391-0.703 2.181-0.601 0.782 0.1 1.48 0.503 1.963 1.134 0.482 0.632 0.694 1.416 0.595 2.208-0.19 1.507-1.464 2.612-2.929 2.612m-0.012-7.93c-1.075 0-2.114 0.358-2.978 1.035-1.031 0.808-1.69 1.974-1.855 3.283-0.338 2.702 1.558 5.179 4.228 5.524 2.665 0.338 5.119-1.575 5.459-4.279 0.165-1.308-0.185-2.604-0.984-3.647-0.798-1.043-1.951-1.71-3.244-1.876-0.209-0.027-0.418-0.04-0.626-0.04"/></g><g transform="translate(344.82 83.703)"><path d="m0 0c-0.123 0-0.248-8e-3 -0.375-0.024-1.615-0.208-2.763-1.707-2.558-3.342 0.101-0.793 0.498-1.498 1.122-1.987 0.624-0.488 1.393-0.703 2.182-0.602 0.782 0.101 1.48 0.504 1.963 1.135 0.482 0.632 0.694 1.416 0.595 2.208-0.19 1.507-1.464 2.612-2.929 2.612m-0.013-7.93c-1.074 0-2.113 0.358-2.977 1.035-1.032 0.808-1.691 1.974-1.855 3.283-0.34 2.702 1.557 5.179 4.228 5.523 2.662 0.338 5.118-1.575 5.458-4.278 0.165-1.308-0.185-2.604-0.984-3.648-0.797-1.043-1.95-1.709-3.244-1.875-0.209-0.027-0.418-0.04-0.626-0.04"/></g><g transform="translate(299.92 67.418)"><path d="m0 0-27.966 28.334 1.363 1.378 26.603-26.952 16.075 16.267-5.904 6-5.841-5.91-1.363 1.379 7.208 7.294 8.624-8.766z"/></g><g transform="translate(321.44 86.708)"><path d="m 0,0 -12.79,12.942 1.363,1.379 L 0,2.758 4.603,7.417 5.966,6.038 Z"/></g><g transform="translate(287.95 64.763)"><path d="m0 0-10.859 10.988 1.363 1.379 10.859-10.988z"/></g><g transform="translate(273.47 44.585)"><path d="m0 0-1.363 1.379 5.939 6.01 1.363-1.379z"/></g><g transform="translate(278.03 31.578)"><path d="m0 0-1.363 1.379 31.428 31.804 1.364-1.379z"/></g><g transform="translate(324.12 77.633)"><path d="m0 0-1.363 1.379 15.167 15.348 1.362-1.38z"/></g><g transform="translate(304.78 22.52)"><path d="m0 0-11.063 11.194-4.397-4.451-1.363 1.379 5.76 5.83 12.426-12.574z"/></g><g transform="translate(339.97 26.552)"><path d="m0 0-27.079 27.403-14.034-14.201 6.582-6.66 5.598 5.667 1.364-1.378-6.962-7.046-9.306 9.417 16.758 16.958 28.442-28.782z"/></g><g transform="translate(335.94 46.486)"><path d="m0 0-10.607 10.734 1.363 1.379 10.607-10.735z"/></g><g transform="translate(336.38 71.228)"><path d="m0 0-1.363 1.378 6.139 6.213 1.363-1.379z"/></g><g transform="translate(440.88 82.017)"><path d="m0 0-6.183-7.606v-6.769l6.183 7.515z"/></g><g transform="translate(445.79 107.91)"><path d="m0 0v4.531h-17.697v-4.531h-46.907v-6.042h46.907v-5.609l6.61-7.552v-10.387l6.183 7.515v2.872l4.904 7.552v5.609h26.651v6.042z"/></g><g transform="translate(440.88 71.336)"><path d="m0 0-6.183-7.606v-1.344h6.183z"/></g><g transform="translate(430.01 58.935)"><path d="m0 0v19.195h-29.637v-48.979h52.025v29.784z"/></g><path d="m472.44 19.89h-91.255v6.638h91.255z"/><path d="m227.6 16.161h-91.789v16.505h91.789z"/><g transform="translate(227.6 108.56)"><path d="m0 0h-91.789v-16.505h20.821l25.073-30.746 24.217 30.746h21.678z"/></g><g transform="translate(181.71 56.454)"><path d="m0 0v-22.331"/></g><g transform="translate(181.71 33.147)"><path d="m0 0c-0.532 0-0.964 0.437-0.964 0.975v22.332c0 0.538 0.432 0.975 0.964 0.975s0.964-0.437 0.964-0.975v-22.332c0-0.538-0.432-0.975-0.964-0.975"/></g><g transform="translate(170.36 44.641)"><path d="m0 0 5.437-5.502"/></g><g transform="translate(175.79 38.164)"><path d="m0 0c-0.247 0-0.493 0.095-0.682 0.286l-5.437 5.502c-0.376 0.38-0.376 0.998 0 1.379 0.377 0.381 0.987 0.381 1.364 0l5.437-5.502c0.376-0.381 0.376-0.998 0-1.379-0.189-0.191-0.435-0.286-0.682-0.286"/></g><g transform="translate(193.38 45.288)"><path d="m0 0-6.396-6.473"/></g><g transform="translate(186.99 37.84)"><path d="m0 0c-0.247 0-0.494 0.096-0.682 0.286-0.376 0.381-0.376 0.998 0 1.379l6.396 6.473c0.377 0.381 0.987 0.381 1.364 0 0.376-0.381 0.376-0.998 0-1.379l-6.397-6.473c-0.188-0.19-0.434-0.286-0.681-0.286"/></g><g transform="translate(79.34 12.684)"><path d="m0 0-57.046 28.863c-2.664 32.553 18.201 37.794 20.895 38.332l11.227-4.502v-2.094c0-0.378 0.215-0.721 0.552-0.882l5.525-2.637v-6.271c0-0.166 0.051-0.315 0.123-0.452-0.041-0.031-0.089-0.049-0.126-0.088l-6.369-6.765-1.317 0.715 3.205 8.256c0.095 0.244 0.088 0.517-0.018 0.756-0.106 0.24-0.303 0.425-0.546 0.516l-6.396 2.387c-0.249 0.091-0.522 0.077-0.758-0.04-0.237-0.117-0.416-0.328-0.495-0.583l-7.036-22.614c-0.151-0.486 0.094-1.009 0.561-1.198l7.996-3.237c0.116-0.046 0.238-0.069 0.358-0.069 0.249 0 0.495 0.098 0.678 0.282l17.271 17.315c0.378 0.379 0.381 0.996 6e-3 1.379s-0.985 0.385-1.363 6e-3l-16.821-16.863-6.579 2.662 6.464 20.775 4.524-1.688-3.158-8.135c-0.179-0.459 0.011-0.982 0.441-1.216l2.719-1.476c0.381-0.206 0.854-0.132 1.153 0.186l6.876 7.302c0.293 0.312 0.332 0.763 0.144 1.124 0.231 0.178 0.391 0.446 0.391 0.763v5.351l1.023-0.489c0.014-6e-3 0.029-4e-3 0.043-9e-3 0.118-0.05 0.241-0.084 0.368-0.084 0.084 0 0.167 0.011 0.25 0.033l4.754 1.29 32.396-12.991c-18.569-12.071-21.474-37.44-21.915-43.91m-9.788 68.97-5.516-0.575-5.607 2.836 3.42 0.604zm3.022-10.313v9.189l32.538-12.101v17.314l-49.892 14.564h-35.82l38.837-14.445-3.023-0.533c-0.014-2e-3 -0.024-0.012-0.038-0.015-0.105-0.023-0.209-0.058-0.303-0.116-3e-3 -2e-3 -5e-3 -5e-3 -8e-3 -7e-3 -0.01-7e-3 -0.018-0.016-0.027-0.023-0.084-0.058-0.154-0.129-0.215-0.209-0.016-0.021-0.032-0.04-0.046-0.063-0.059-0.091-0.106-0.19-0.132-0.297-3e-3 -0.016-2e-3 -0.031-5e-3 -0.047-0.012-0.06-0.024-0.121-0.024-0.184v-6.76c-19.773 7.985-37.838 15.255-38.054 15.255v-21.846l8.402-3.492c-3.305-6.067-5.419-14.622-4.344-26.694 0.029-0.336 0.23-0.633 0.528-0.784l58.848-29.775c0.136-0.068 0.284-0.103 0.43-0.103 0.175 0 0.348 0.048 0.501 0.142 0.283 0.174 0.459 0.484 0.464 0.819 3e-3 0.223 0.377 15.853 8.111 29.565l15.81-6.572v22.978s-0.396 0.161-1.116 0.452c-0.069 0.053-0.144 0.098-0.227 0.131l-9.961 3.995c-5.878 2.379-13.54 5.48-21.763 8.805 0.316 0.164 0.529 0.486 0.529 0.857"/></g><g transform="translate(70.961 30.149)"><path d="m0 0-11.922 5.44 2.228 5.24 4.827-1.72c0.403-0.143 0.853 0 1.103 0.351l2.239 3.156c0.162 0.227 0.218 0.513 0.156 0.787-0.062 0.273-0.236 0.506-0.48 0.639l-2.992 1.641 1.342 2.523 3.724-1.851c0.244-0.122 0.527-0.129 0.779-0.029s0.452 0.307 0.549 0.564c0.01 0.026 1.02 2.591 5.691 6.317l4.351-2.145c-2.534-2.31-8.389-8.718-11.595-20.913m13.785 22.003-6.236 3.075c-0.328 0.16-0.717 0.122-1.008-0.102-3.822-2.957-5.572-5.342-6.312-6.599l-3.711 1.845c-0.465 0.233-1.029 0.049-1.274-0.413l-2.239-4.207c-0.251-0.474-0.077-1.064 0.39-1.321l2.876-1.576-1.18-1.662-4.995 1.78c-0.476 0.17-1.005-0.063-1.205-0.535l-2.958-6.958c-0.208-0.489 9e-3 -1.056 0.488-1.275l13.833-6.311c0.126-0.057 0.261-0.086 0.396-0.086 0.144 0 0.289 0.033 0.422 0.098 0.258 0.128 0.446 0.364 0.514 0.645 3.774 15.589 12.251 21.869 12.336 21.931 0.276 0.2 0.429 0.532 0.401 0.876-0.029 0.342-0.233 0.645-0.538 0.795"/></g><g transform="translate(586.27 76.195)"><path d="m0 0h-27.479v13.377h-9.909v8.541c0 2.61-2.098 4.733-4.677 4.733h-18.161c-1.412 0-2.565 1.088-2.717 2.476h57.792c2.833 0 5.151-2.345 5.151-5.212zm0-42.254c0-2.867-2.318-5.213-5.151-5.213h-12.519v10.357h-4.991v5.595h-4.818v4.329h-9.909v7.094h3.7v6.283h6.209v5.826h27.479zm-49.652 15.068v-4.329h-5.311v-5.595h-4.071v-10.357h-14.49c-2.834 0-5.152 2.346-5.152 5.213v34.271h29.024v-5.826h6.609v-6.283h3.728v-7.094zm-29.024 51.101c0 2.867 2.318 5.212 5.152 5.212h8.653c0.158-2.464 2.171-4.427 4.645-4.427h18.161c1.516 0 2.75-1.247 2.75-2.782v-8.541h-10.337v-13.377h-29.024zm-6.983-81.415h92.642v93.747h-92.642z"/></g></g></g></svg>
